# Blender v2.80 (sub 75) OBJ File: 'Low-Poly_Models.blend'
# www.blender.org
mtllib Rock.mtl
o Icosphere.026
v -0.225724 1.721715 -1.428110
v 0.361749 1.913406 -1.760102
v 0.271557 1.913406 -0.971980
v 0.773753 2.431232 -1.992933
v 0.227555 2.330453 -2.421418
v -0.505866 1.913410 -0.814211
v -0.896139 1.913406 -1.504838
v -0.359920 1.913406 -2.089423
v 0.641897 3.005258 -2.374007
v 0.620309 2.431232 -0.652090
v 0.859038 2.330451 -1.303972
v 0.941983 3.005258 -0.895247
v -0.702330 2.431237 -0.383682
v -0.008585 2.330453 -0.358076
v -0.371671 3.005258 -0.152891
v -1.366311 2.431232 -1.558649
v -1.176285 2.330453 -0.890936
v -1.483628 3.005258 -1.172844
v -0.454034 2.431232 -2.553212
v -1.030340 2.330451 -2.166157
v -0.857210 3.005258 -2.545568
v 1.032181 3.005258 -1.683377
v 0.405762 3.005258 -0.310653
v -1.093344 3.005258 -0.482214
v -1.393432 3.005258 -1.960973
v -0.079777 3.005258 -2.703330
v 0.914863 3.579285 -1.297571
v 0.724837 3.680064 -1.965285
v 0.444691 4.097110 -1.351382
v 0.002586 3.579284 -0.303009
v 0.578892 3.680066 -0.690064
v -0.091528 4.097110 -0.766797
v -1.225201 3.579284 -0.863288
v -0.679002 3.680063 -0.434802
v -0.813197 4.097110 -1.096118
v -1.071757 3.579285 -2.204130
v -1.310486 3.680066 -1.552249
v -0.723005 4.097110 -1.884240
v 0.250883 3.579279 -2.472538
v -0.442863 3.680064 -2.498145
v 0.054419 4.097107 -2.042008
v -0.225723 4.288802 -1.428110
vn 0.3292 -0.9435 0.0377
vn 0.5345 -0.6617 -0.5258
vn 0.0659 -0.9435 0.3247
vn -0.2884 -0.9435 0.1630
vn -0.2442 -0.9435 -0.2239
vn 0.6195 -0.3304 -0.7120
vn 0.8686 -0.3304 0.3692
vn -0.0827 -0.3304 0.9402
vn -0.9198 -0.3304 0.2119
vn -0.4857 -0.3304 -0.8093
vn 0.8637 -0.1256 -0.4881
vn 0.7311 -0.1256 0.6706
vn -0.4119 -0.1256 0.9025
vn -0.9856 -0.1256 -0.1128
vn -0.1973 -0.1256 -0.9723
vn 0.7415 0.6617 -0.1111
vn 0.3348 0.6617 0.6709
vn -0.5345 0.6617 0.5258
vn -0.6652 0.6617 -0.3459
vn 0.1234 0.6617 -0.7395
vn -0.0659 0.9435 -0.3247
vn -0.1207 0.7947 -0.5949
vn -0.4019 0.6617 -0.6329
vn -0.3292 0.9435 -0.0377
vn -0.6031 0.7947 -0.0690
vn -0.7262 0.6617 0.1867
vn -0.1375 0.9435 0.3014
vn -0.2520 0.7947 0.5523
vn -0.0469 0.6617 0.7483
vn 0.2442 0.9435 0.2240
vn 0.4474 0.7947 0.4103
vn 0.6972 0.6617 0.2758
vn 0.2884 0.9435 -0.1630
vn 0.5285 0.7947 -0.2987
vn 0.4777 0.6617 -0.5779
vn 0.0827 0.3304 -0.9402
vn -0.1953 0.1876 -0.9626
vn -0.4427 0.3304 -0.8336
vn -0.8686 0.3304 -0.3692
vn -0.9759 0.1876 -0.1117
vn -0.9296 0.3304 0.1634
vn -0.6195 0.3304 0.7120
vn -0.4078 0.1876 0.8936
vn -0.1319 0.3304 0.9346
vn 0.4857 0.3304 0.8093
vn 0.7239 0.1876 0.6640
vn 0.8481 0.3304 0.4142
vn 0.9198 0.3304 -0.2119
vn 0.8551 0.1876 -0.4833
vn 0.6560 0.3304 -0.6786
vn -0.7311 0.1256 -0.6706
vn -0.7239 -0.1876 -0.6640
vn -0.8481 -0.3304 -0.4142
vn -0.8637 0.1256 0.4881
vn -0.8551 -0.1876 0.4833
vn -0.6560 -0.3304 0.6786
vn 0.1973 0.1256 0.9723
vn 0.1953 -0.1876 0.9626
vn 0.4427 -0.3304 0.8336
vn 0.9856 0.1256 0.1128
vn 0.9759 -0.1876 0.1117
vn 0.9296 -0.3304 -0.1634
vn 0.4119 0.1256 -0.9025
vn 0.4078 -0.1876 -0.8936
vn 0.1319 -0.3304 -0.9346
vn -0.3348 -0.6617 -0.6708
vn -0.4474 -0.7947 -0.4103
vn -0.6972 -0.6617 -0.2758
vn -0.7415 -0.6617 0.1111
vn -0.5285 -0.7947 0.2987
vn -0.4777 -0.6617 0.5779
vn -0.1234 -0.6617 0.7395
vn 0.1207 -0.7947 0.5949
vn 0.4019 -0.6617 0.6329
vn 0.0469 -0.6617 -0.7483
vn 0.2520 -0.7947 -0.5523
vn 0.1375 -0.9435 -0.3014
vn 0.6652 -0.6617 0.3459
vn 0.6031 -0.7947 0.0690
vn 0.7262 -0.6617 -0.1867
usemtl Material.009
s 1
f 1//1 2//1 3//1
f 4//2 2//2 5//2
f 1//3 3//3 6//3
f 1//4 6//4 7//4
f 1//5 7//5 8//5
f 4//6 5//6 9//6
f 10//7 11//7 12//7
f 13//8 14//8 15//8
f 16//9 17//9 18//9
f 19//10 20//10 21//10
f 4//11 9//11 22//11
f 10//12 12//12 23//12
f 13//13 15//13 24//13
f 16//14 18//14 25//14
f 19//15 21//15 26//15
f 27//16 28//16 29//16
f 30//17 31//17 32//17
f 33//18 34//18 35//18
f 36//19 37//19 38//19
f 39//20 40//20 41//20
f 41//21 38//21 42//21
f 41//22 40//22 38//22
f 40//23 36//23 38//23
f 38//24 35//24 42//24
f 38//25 37//25 35//25
f 37//26 33//26 35//26
f 35//27 32//27 42//27
f 35//28 34//28 32//28
f 34//29 30//29 32//29
f 32//30 29//30 42//30
f 32//31 31//31 29//31
f 31//32 27//32 29//32
f 29//33 41//33 42//33
f 29//34 28//34 41//34
f 28//35 39//35 41//35
f 26//36 40//36 39//36
f 26//37 21//37 40//37
f 21//38 36//38 40//38
f 25//39 37//39 36//39
f 25//40 18//40 37//40
f 18//41 33//41 37//41
f 24//42 34//42 33//42
f 24//43 15//43 34//43
f 15//44 30//44 34//44
f 23//45 31//45 30//45
f 23//46 12//46 31//46
f 12//47 27//47 31//47
f 22//48 28//48 27//48
f 22//49 9//49 28//49
f 9//50 39//50 28//50
f 21//51 25//51 36//51
f 21//52 20//52 25//52
f 20//53 16//53 25//53
f 18//54 24//54 33//54
f 18//55 17//55 24//55
f 17//56 13//56 24//56
f 15//57 23//57 30//57
f 15//58 14//58 23//58
f 14//59 10//59 23//59
f 12//60 22//60 27//60
f 12//61 11//61 22//61
f 11//62 4//62 22//62
f 9//63 26//63 39//63
f 9//64 5//64 26//64
f 5//65 19//65 26//65
f 8//66 20//66 19//66
f 8//67 7//67 20//67
f 7//68 16//68 20//68
f 7//69 17//69 16//69
f 7//70 6//70 17//70
f 6//71 13//71 17//71
f 6//72 14//72 13//72
f 6//73 3//73 14//73
f 3//74 10//74 14//74
f 5//75 8//75 19//75
f 5//76 2//76 8//76
f 2//77 1//77 8//77
f 3//78 11//78 10//78
f 3//79 2//79 11//79
f 2//80 4//80 11//80
